<!DOCTYPE svg PUBLIC "-//W3C//DTD SVG 1.1//EN" "http://www.w3.org/Graphics/SVG/1.1/DTD/svg11.dtd">
<!-- Uploaded to: SVG Repo, www.svgrepo.com, Transformed by: SVG Repo Mixer Tools -->
<svg version="1.0" id="Layer_1" xmlns="http://www.w3.org/2000/svg" xmlns:xlink="http://www.w3.org/1999/xlink" width="125px" height="125px" viewBox="0 0 64 64" enable-background="new 0 0 64 64" xml:space="preserve" fill="#000000">
<g id="SVGRepo_bgCarrier" stroke-width="0"/>
<g id="SVGRepo_tracerCarrier" stroke-linecap="round" stroke-linejoin="round"/>
<g id="SVGRepo_iconCarrier"> <g> <rect x="14" y="36" fill="#333333" width="4" height="10"/> <path fill="#333333" d="M52,47c0,0.553-0.447,1-1,1h-6c-0.553,0-1-0.447-1-1v-5H20v5c0,0.553-0.447,1-1,1h-6c-0.553,0-1-0.447-1-1 v-5H0v18c0,2.211,1.789,4,4,4h56c2.211,0,4-1.789,4-4V42H52V47z"/> <rect x="46" y="36" fill="#333333" width="4" height="10"/> <path fill="#333333" d="M60,13H48V4c0-2.211-1.789-4-4-4H20c-2.211,0-4,1.789-4,4v9H4c-2.211,0-4,1.789-4,4v23h12v-5 c0-0.553,0.447-1,1-1h6c0.553,0,1,0.447,1,1v5h24v-5c0-0.553,0.447-1,1-1h6c0.553,0,1,0.447,1,1v5h12V17C64,14.789,62.211,13,60,13 z M42,13H22V6h20V13z"/> </g> </g>
</svg>