<!DOCTYPE svg PUBLIC "-//W3C//DTD SVG 1.1//EN" "http://www.w3.org/Graphics/SVG/1.1/DTD/svg11.dtd">
<!-- Uploaded to: SVG Repo, www.svgrepo.com, Transformed by: SVG Repo Mixer Tools -->
<svg height="125px" width="125px" version="1.1" id="Layer_1" xmlns="http://www.w3.org/2000/svg" xmlns:xlink="http://www.w3.org/1999/xlink" viewBox="0 0 512 512" xml:space="preserve" fill="#000000">
<g id="SVGRepo_bgCarrier" stroke-width="0"/>
<g id="SVGRepo_tracerCarrier" stroke-linecap="round" stroke-linejoin="round"/>
<g id="SVGRepo_iconCarrier"> <g> <g> <g> <path style="fill:#fff;" d="M101.049,192.893v61.187l71.405-63.16C98.052,190.919,101.049,190.073,101.049,192.893z"/> <path style="fill:#fff;" d="M246.54,190.919c0.069,1.51,0.05-0.293,0.05,23.632h18.82c0-23.935-0.019-22.123,0.05-23.632 H246.54z"/> <path style="fill:#fff;" d="M306.145,192.893v61.186l71.405-63.16C303.148,190.919,306.145,190.073,306.145,192.893z"/> <path style="fill:#fff;" d="M205.855,215.758l-71.406,63.161c74.403,0,71.406,0.847,71.406-1.974V215.758z"/> <path style="fill:#fff;" d="M410.951,215.759l-71.406,63.161c74.403,0,71.406,0.847,71.406-1.974V215.759z"/> <path style="fill:#fff;" d="M256,0C114.842,0,0,114.842,0,256s114.842,256,256,256s256-114.841,256-256S397.159,0,256,0z M256,436.33c-32.147,0-58.302-28.043-58.302-62.513c0-11.248,9.119-20.368,20.368-20.368c11.248,0,20.368,9.119,20.368,20.368 c0,28.826,35.131,28.788,35.131,0c0-11.248,9.119-20.368,20.368-20.368c11.248,0,20.368,9.119,20.368,20.368 C314.302,408.287,288.147,436.33,256,436.33z M408.977,319.654H308.119c-11.091,0-21.205-4.251-28.807-11.208 c-0.297-0.261-0.58-0.544-0.865-0.826c-8.03-7.77-13.038-18.646-13.038-30.676v-21.659h-18.82v21.659 c0,23.55-19.159,42.709-42.709,42.709H103.023c-23.58,0-42.709-19.213-42.709-42.709v-84.053 c0-23.55,19.159-42.709,42.709-42.709c11.645,0,291.717,0,305.955,0c23.689,0,42.709,19.323,42.709,42.709v84.053 C451.686,300.495,432.527,319.654,408.977,319.654z"/> </g> </g> </g> </g>
</svg>