<!DOCTYPE svg PUBLIC "-//W3C//DTD SVG 1.1//EN" "http://www.w3.org/Graphics/SVG/1.1/DTD/svg11.dtd">
<!-- Uploaded to: SVG Repo, www.svgrepo.com, Transformed by: SVG Repo Mixer Tools -->
<svg fill="#2ed6fd" height="125px" width="125px" version="1.1" id="Layer_1" xmlns="http://www.w3.org/2000/svg" xmlns:xlink="http://www.w3.org/1999/xlink" viewBox="0 0 512 512" xml:space="preserve">
<g id="SVGRepo_bgCarrier" stroke-width="0"/>
<g id="SVGRepo_tracerCarrier" stroke-linecap="round" stroke-linejoin="round"/>
<g id="SVGRepo_iconCarrier"> <g> <g> <path d="M358.614,324.944h-94.597v-14.317l21.716-21.716c3.601,0.503,6.964,0.758,10.174,0.758 c43.712,0.001,79.276-35.562,79.276-79.276c0-4.434-0.47-9.144-1.438-14.398c-0.602-3.272-3.162-5.832-6.434-6.434 c-5.255-0.967-9.964-1.438-14.398-1.438c-43.712,0.001-79.276,35.564-79.276,79.278c0,3.21,0.255,6.573,0.758,10.174 l-10.378,10.378V186.71c47.832-4.08,85.511-44.31,85.511-93.181C349.529,41.956,307.573,0,256.001,0s-93.528,41.956-93.528,93.528 c0,48.871,37.68,89.101,85.511,93.181v101.243l-10.378-10.378c0.503-3.601,0.758-6.964,0.758-10.174 c0-43.712-35.563-79.276-79.277-79.276c-4.434,0-9.144,0.47-14.398,1.438c-3.272,0.602-5.832,3.162-6.434,6.434 c-0.967,5.255-1.438,9.964-1.438,14.398c0.001,43.712,35.564,79.276,79.278,79.276c3.21,0,6.573-0.255,10.174-0.758l21.715,21.715 v14.317h-94.597c-9.136,0-16.568,7.432-16.568,16.568v17.102c0,9.136,7.432,16.568,16.568,16.568h1.474l14.352,114.815 C170.781,502.54,181.497,512,194.138,512h123.725c12.642,0,23.357-9.46,24.924-22.003l14.352-114.815h1.474 c9.136,0,16.568-7.432,16.568-16.568v-17.102C375.182,332.376,367.75,324.944,358.614,324.944z M352.914,204.159 c1.893,0,3.831,0.109,5.899,0.336c0.227,2.068,0.336,4.007,0.336,5.899c0,33.07-25.52,60.276-57.899,63.001l11.726-11.726 c3.131-3.131,3.131-8.207,0-11.337c-3.131-3.131-8.207-3.131-11.337,0l-11.726,11.726 C292.637,229.679,319.842,204.159,352.914,204.159z M210.362,250.332c-3.131-3.131-8.207-3.131-11.337,0 c-3.131,3.131-3.131,8.207,0,11.337l11.726,11.726c-32.379-2.724-57.899-29.929-57.899-63.001c0-1.893,0.109-3.831,0.336-5.899 c2.068-0.227,4.007-0.336,5.899-0.336c33.07,0,60.276,25.52,63.001,57.899L210.362,250.332z M178.506,93.528 c0-42.731,34.764-77.495,77.495-77.495s77.495,34.764,77.495,77.495c0,42.731-34.764,77.495-77.495,77.495 S178.506,136.259,178.506,93.528z M326.879,488.008c-0.568,4.537-4.443,7.959-9.016,7.959H194.138 c-4.573,0-8.449-3.422-9.016-7.959l-14.103-112.826h169.964L326.879,488.008z M359.149,358.614c0,0.295-0.239,0.534-0.534,0.534 H153.387c-0.295,0-0.534-0.239-0.534-0.534v-17.102c0-0.295,0.239-0.534,0.534-0.534h205.228c0.295,0,0.534,0.239,0.534,0.534 V358.614z"/> </g> </g> <g> <g> <path d="M264.017,87.889V60.031c5.907,1.936,9.62,5.833,9.62,9.447c0,4.427,3.589,8.017,8.017,8.017s8.017-3.589,8.017-8.017 c0-12.784-10.768-23.198-25.653-25.983v-1.274c0-4.427-3.589-8.017-8.017-8.017s-8.017,3.589-8.017,8.017v1.274 c-14.885,2.784-25.653,13.199-25.653,25.983c0,17.862,14.265,25.369,25.653,29.69v27.857c-5.907-1.936-9.62-5.833-9.62-9.447 c0-4.427-3.589-8.017-8.017-8.017s-8.017,3.589-8.017,8.017c0,12.784,10.768,23.198,25.653,25.983v1.274 c0,4.427,3.589,8.017,8.017,8.017s8.017-3.589,8.017-8.017v-1.274c14.885-2.786,25.653-13.2,25.653-25.983 C289.671,99.716,275.405,92.209,264.017,87.889z M247.984,81.677c-7.992-3.917-9.62-7.338-9.62-12.199 c0-3.614,3.713-7.511,9.62-9.447V81.677z M264.017,127.025V105.38c7.992,3.916,9.62,7.337,9.62,12.198 C273.637,121.192,269.924,125.089,264.017,127.025z"/> </g> </g> </g>
</svg>